<svg width="1212" height="624" viewBox="0 0 1212 624" fill="none" xmlns="http://www.w3.org/2000/svg">
<mask id="mask0_245_5" style="mask-type:alpha" maskUnits="userSpaceOnUse" x="-315" y="-234" width="1527" height="858">
<g clip-path="url(#clip0_245_5)">
<path d="M1056.65 -27.0956L875.987 -29.1895" stroke="#DCDCDC" stroke-width="1.5"/>
<path d="M637.877 44.8484L568.468 -64.7178" stroke="#DCDCDC" stroke-width="1.5"/>
<path d="M637.877 44.8484L498.062 118.818" stroke="#DCDCDC" stroke-width="1.5"/>
<path d="M637.877 44.8484L463.264 -76.7628" stroke="#DCDCDC" stroke-width="1.5"/>
<path d="M637.877 44.8484L761.164 -155.248" stroke="#DCDCDC" stroke-width="1.5"/>
<path d="M484.869 252.265L498.062 118.817" stroke="#DCDCDC" stroke-width="1.5"/>
<path d="M484.869 252.265L328.819 302.193" stroke="#DCDCDC" stroke-width="1.5"/>
<path d="M484.869 252.265L355.859 88.778" stroke="#DCDCDC" stroke-width="1.5"/>
<path d="M498.062 118.818L355.859 88.778" stroke="#DCDCDC" stroke-width="1.5"/>
<path d="M463.264 -76.7628L355.859 88.778" stroke="#DCDCDC" stroke-width="1.5"/>
<path d="M328.819 302.193L203.042 308.31" stroke="#DCDCDC" stroke-width="1.5"/>
<path d="M355.859 88.778L188.312 36.2511" stroke="#DCDCDC" stroke-width="1.5"/>
<path d="M355.859 88.778L168.047 186.994" stroke="#DCDCDC" stroke-width="1.5"/>
<path d="M355.859 88.778L328.819 302.193" stroke="#DCDCDC" stroke-width="1.5"/>
<path d="M285.017 -181.327L188.312 36.251" stroke="#DCDCDC" stroke-width="1.5"/>
<path d="M285.017 -181.327L355.859 88.778" stroke="#DCDCDC" stroke-width="1.5"/>
<path d="M301.819 571.079L115.414 484.317" stroke="#DCDCDC" stroke-width="1.5"/>
<path d="M301.819 571.079L94.6472 632.559" stroke="#DCDCDC" stroke-width="1.5"/>
<path d="M301.819 571.079L328.819 302.193" stroke="#DCDCDC" stroke-width="1.5"/>
<path d="M301.819 571.079L203.042 308.31" stroke="#DCDCDC" stroke-width="1.5"/>
<path d="M301.819 571.079L-3.93051 647.879" stroke="#DCDCDC" stroke-width="1.5"/>
<path d="M203.042 308.31L168.048 186.994" stroke="#DCDCDC" stroke-width="1.5"/>
<path d="M168.048 186.994L32.8492 202.886" stroke="#DCDCDC" stroke-width="1.5"/>
<path d="M168.048 186.994L188.312 36.2511" stroke="#DCDCDC" stroke-width="1.5"/>
<path d="M168.047 186.994L328.819 302.193" stroke="#DCDCDC" stroke-width="1.5"/>
<path d="M188.312 36.251L83.2663 -135.947" stroke="#DCDCDC" stroke-width="1.5"/>
<path d="M188.312 36.2511L32.8492 202.886" stroke="#DCDCDC" stroke-width="1.5"/>
<path d="M188.312 36.251L-11.1535 -137.391" stroke="#DCDCDC" stroke-width="1.5"/>
<path d="M94.6473 632.559L115.414 484.317" stroke="#DCDCDC" stroke-width="1.5"/>
<path d="M94.6473 632.559L-49.0525 517.169" stroke="#DCDCDC" stroke-width="1.5"/>
<path d="M94.6474 632.559L43.8048 366.194" stroke="#DCDCDC" stroke-width="1.5"/>
<path d="M115.414 484.317L43.8047 366.194" stroke="#DCDCDC" stroke-width="1.5"/>
<path d="M115.414 484.317L-49.0526 517.169" stroke="#DCDCDC" stroke-width="1.5"/>
<path d="M43.8048 366.194L-118.91 357.927" stroke="#DCDCDC" stroke-width="1.5"/>
<path d="M43.8047 366.194L32.8492 202.886" stroke="#DCDCDC" stroke-width="1.5"/>
<path d="M43.8047 366.194L203.042 308.31" stroke="#DCDCDC" stroke-width="1.5"/>
<path d="M32.8491 202.886L-99.246 187.428" stroke="#DCDCDC" stroke-width="1.5"/>
<path d="M32.8491 202.886L203.042 308.31" stroke="#DCDCDC" stroke-width="1.5"/>
<path d="M-3.93041 647.879L115.414 484.317" stroke="#DCDCDC" stroke-width="1.5"/>
<path d="M636.797 39.9664C634.101 40.5627 632.398 43.2319 632.995 45.9281C633.591 48.6244 636.26 50.3267 638.957 49.7304C641.653 49.1341 643.355 46.4649 642.759 43.7686C642.163 41.0723 639.493 39.37 636.797 39.9664Z" fill="#DCDCDC"/>
<path d="M483.789 247.383C481.093 247.98 479.391 250.649 479.987 253.345C480.583 256.041 483.253 257.744 485.949 257.147C488.645 256.551 490.347 253.882 489.751 251.186C489.155 248.489 486.486 246.787 483.789 247.383Z" fill="#DCDCDC"/>
<path d="M496.982 113.935C494.286 114.532 492.583 117.201 493.18 119.897C493.776 122.594 496.445 124.296 499.141 123.7C501.838 123.103 503.54 120.434 502.944 117.738C502.347 115.041 499.678 113.339 496.982 113.935Z" fill="#DCDCDC"/>
<path d="M327.739 297.311C325.043 297.908 323.34 300.577 323.937 303.273C324.533 305.969 327.202 307.672 329.899 307.075C332.595 306.479 334.297 303.81 333.701 301.114C333.105 298.417 330.435 296.715 327.739 297.311Z" fill="#DCDCDC"/>
<path d="M354.779 83.896C352.083 84.4923 350.381 87.1615 350.977 89.8578C351.573 92.554 354.242 94.2564 356.939 93.66C359.635 93.0637 361.337 90.3945 360.741 87.6982C360.145 85.002 357.475 83.2996 354.779 83.896Z" fill="#DCDCDC"/>
<path d="M300.739 566.197C298.043 566.793 296.34 569.462 296.937 572.159C297.533 574.855 300.202 576.557 302.899 575.961C305.595 575.365 307.297 572.695 306.701 569.999C306.105 567.303 303.435 565.601 300.739 566.197Z" fill="#DCDCDC"/>
<path d="M201.962 303.428C199.266 304.024 197.564 306.693 198.16 309.389C198.756 312.086 201.425 313.788 204.122 313.192C206.818 312.595 208.52 309.926 207.924 307.23C207.328 304.534 204.658 302.831 201.962 303.428Z" fill="#DCDCDC"/>
<path d="M166.968 182.112C164.272 182.709 162.569 185.378 163.166 188.074C163.762 190.77 166.431 192.473 169.127 191.876C171.824 191.28 173.526 188.611 172.93 185.915C172.333 183.218 169.664 181.516 166.968 182.112Z" fill="#DCDCDC"/>
<path d="M187.232 31.369C184.536 31.9653 182.834 34.6345 183.43 37.3308C184.026 40.0271 186.696 41.7294 189.392 41.133C192.088 40.5367 193.79 37.8675 193.194 35.1713C192.598 32.475 189.929 30.7727 187.232 31.369Z" fill="#DCDCDC"/>
<path d="M114.334 479.435C111.638 480.031 109.935 482.7 110.532 485.396C111.128 488.093 113.797 489.795 116.493 489.199C119.19 488.602 120.892 485.933 120.296 483.237C119.699 480.541 117.03 478.838 114.334 479.435Z" fill="#DCDCDC"/>
<path d="M42.725 361.312C40.0288 361.908 38.3265 364.577 38.9228 367.273C39.5191 369.97 42.1883 371.672 44.8846 371.076C47.5808 370.479 49.2832 367.81 48.6868 365.114C48.0905 362.418 45.4213 360.715 42.725 361.312Z" fill="#DCDCDC"/>
<path d="M31.7694 198.004C29.0731 198.6 27.3708 201.269 27.9671 203.966C28.5634 206.662 31.2326 208.364 33.9289 207.768C36.6252 207.172 38.3275 204.502 37.7311 201.806C37.1348 199.11 34.4656 197.408 31.7694 198.004Z" fill="#DCDCDC"/>
<path d="M-74.7396 336.247L49.8507 367.089" stroke="#D9D9D9" stroke-width="1.5"/>
<path d="M-74.7396 336.247L7.39755 186.905" stroke="#D9D9D9" stroke-width="1.5"/>
<path d="M604.619 -103.899L502.154 68.9265" stroke="#D9D9D9" stroke-width="1.5"/>
<path d="M502.154 68.9265L355.381 101.665" stroke="#D9D9D9" stroke-width="1.5"/>
<path d="M502.154 68.9265L415.6 -63.2404" stroke="#D9D9D9" stroke-width="1.5"/>
<path d="M502.154 68.9265L273.037 10.7629" stroke="#D9D9D9" stroke-width="1.5"/>
<path d="M502.154 68.9265L397.84 -161.504" stroke="#D9D9D9" stroke-width="1.5"/>
<path d="M502.154 68.9265L283.033 -148.391" stroke="#D9D9D9" stroke-width="1.5"/>
<path d="M355.381 101.665L273.037 10.7629" stroke="#D9D9D9" stroke-width="1.5"/>
<path d="M355.381 101.665L205.448 180.689" stroke="#D9D9D9" stroke-width="1.5"/>
<path d="M355.381 101.665L415.6 -63.2404" stroke="#D9D9D9" stroke-width="1.5"/>
<path d="M355.381 101.665L143.536 43.6145" stroke="#D9D9D9" stroke-width="1.5"/>
<path d="M273.037 10.7629L143.536 43.6145" stroke="#D9D9D9" stroke-width="1.5"/>
<path d="M273.037 10.7629L283.033 -148.391" stroke="#D9D9D9" stroke-width="1.5"/>
<path d="M205.448 180.689L143.536 43.6145" stroke="#D9D9D9" stroke-width="1.5"/>
<path d="M143.536 43.6145L110.419 -109.681" stroke="#D9D9D9" stroke-width="1.5"/>
<path d="M143.536 43.6145L7.39747 186.905" stroke="#D9D9D9" stroke-width="1.5"/>
<path d="M143.536 43.6145L-51.5201 -71.0992" stroke="#D9D9D9" stroke-width="1.5"/>
<path d="M110.419 -109.681L273.037 10.7629" stroke="#D9D9D9" stroke-width="1.5"/>
<path d="M7.39758 186.905L-87.8828 183.839" stroke="#D9D9D9" stroke-width="1.5"/>
<path d="M7.39754 186.905L49.8507 367.089" stroke="#D9D9D9" stroke-width="1.5"/>
<path d="M-51.52 -71.0993L-87.8829 183.839" stroke="#D9D9D9" stroke-width="1.5"/>
<path d="M19.1569 664.884L-232.911 520.318" stroke="#D9D9D9" stroke-width="1.5"/>
<path d="M-87.8829 183.839L49.8507 367.089" stroke="#D9D9D9" stroke-width="1.5"/>
<path d="M501.074 64.0445C498.378 64.6408 496.676 67.31 497.272 70.0063C497.868 72.7025 500.537 74.4048 503.234 73.8085C505.93 73.2122 507.632 70.543 507.036 67.8467C506.44 65.1504 503.77 63.4481 501.074 64.0445Z" fill="#A4A4A4"/>
<path d="M354.301 96.7834C351.605 97.3797 349.902 100.049 350.499 102.745C351.095 105.441 353.764 107.144 356.461 106.547C359.157 105.951 360.859 103.282 360.263 100.586C359.666 97.8893 356.997 96.187 354.301 96.7834Z" fill="#A4A4A4"/>
<path d="M271.957 5.88088C269.261 6.47722 267.559 9.1464 268.155 11.8427C268.751 14.5389 271.42 16.2413 274.117 15.6449C276.813 15.0486 278.515 12.3794 277.919 9.68312C277.323 6.98686 274.653 5.28454 271.957 5.88088Z" fill="#A4A4A4"/>
<path d="M204.369 175.807C201.672 176.403 199.97 179.072 200.566 181.768C201.163 184.465 203.832 186.167 206.528 185.571C209.224 184.974 210.927 182.305 210.33 179.609C209.734 176.913 207.065 175.21 204.369 175.807Z" fill="#A4A4A4"/>
<path d="M142.456 38.7325C139.759 39.3288 138.057 41.998 138.654 44.6942C139.25 47.3905 141.919 49.0928 144.615 48.4965C147.312 47.9001 149.014 45.231 148.418 42.5347C147.821 39.8384 145.152 38.1361 142.456 38.7325Z" fill="#A4A4A4"/>
<path d="M48.7709 362.207C46.0747 362.803 44.3724 365.473 44.9687 368.169C45.565 370.865 48.2342 372.567 50.9305 371.971C53.6267 371.375 55.3291 368.706 54.7327 366.009C54.1364 363.313 51.4672 361.611 48.7709 362.207Z" fill="#A4A4A4"/>
<path d="M6.31781 182.023C3.62155 182.62 1.91923 185.289 2.51557 187.985C3.11191 190.681 5.78109 192.384 8.47736 191.787C11.1736 191.191 12.8759 188.522 12.2796 185.825C11.6833 183.129 9.01408 181.427 6.31781 182.023Z" fill="#A4A4A4"/>
</g>
</mask>
<g mask="url(#mask0_245_5)">
<rect y="1.52588e-05" width="1440" height="586" fill="#D9D9D9"/>
</g>
<defs>
<clipPath id="clip0_245_5">
<rect width="1440" height="560" fill="white" transform="translate(1211.96 312.786) rotate(167.528)"/>
</clipPath>
</defs>
</svg>
