<svg width="1440" height="557" viewBox="0 0 1440 557" fill="none" xmlns="http://www.w3.org/2000/svg">
<g clip-path="url(#clip0_246_7)">
<path d="M-81.8301 349.82L49.4199 353.75" stroke="#CBCBCB" stroke-width="1.5"/>
<path d="M-60.29 517.83L61.87 553.42" stroke="#CBCBCB" stroke-width="1.5"/>
<path d="M49.42 353.75L-60.29 517.83" stroke="#CBCBCB" stroke-width="1.5"/>
<path d="M49.4199 353.75L61.8699 553.42" stroke="#CBCBCB" stroke-width="1.5"/>
<path d="M49.4199 353.75L257.6 411.7" stroke="#CBCBCB" stroke-width="1.5"/>
<path d="M61.8699 553.42L39.95 666.92" stroke="#CBCBCB" stroke-width="1.5"/>
<path d="M61.8699 553.42L-47.5701 661.17" stroke="#CBCBCB" stroke-width="1.5"/>
<path d="M257.6 411.7L348.73 381.99" stroke="#CBCBCB" stroke-width="1.5"/>
<path d="M257.6 411.7L378.82 515.14" stroke="#CBCBCB" stroke-width="1.5"/>
<path d="M245.19 709.1L378.82 515.14" stroke="#CBCBCB" stroke-width="1.5"/>
<path d="M245.19 709.1L61.87 553.42" stroke="#CBCBCB" stroke-width="1.5"/>
<path d="M245.19 709.1L257.6 411.7" stroke="#CBCBCB" stroke-width="1.5"/>
<path d="M348.73 381.99L378.82 515.14" stroke="#CBCBCB" stroke-width="1.5"/>
<path d="M348.73 381.99L532.37 496.37" stroke="#CBCBCB" stroke-width="1.5"/>
<path d="M348.73 381.99L368.89 656.16" stroke="#CBCBCB" stroke-width="1.5"/>
<path d="M348.73 381.99L49.4199 353.75" stroke="#CBCBCB" stroke-width="1.5"/>
<path d="M378.82 515.14L368.89 656.16" stroke="#CBCBCB" stroke-width="1.5"/>
<path d="M378.82 515.14L532.37 496.37" stroke="#CBCBCB" stroke-width="1.5"/>
<path d="M378.82 515.14L544.71 676.79" stroke="#CBCBCB" stroke-width="1.5"/>
<path d="M532.37 496.37L660.58 392.77" stroke="#CBCBCB" stroke-width="1.5"/>
<path d="M532.37 496.37L707.23 514.3" stroke="#CBCBCB" stroke-width="1.5"/>
<path d="M532.37 496.37L544.71 676.79" stroke="#CBCBCB" stroke-width="1.5"/>
<path d="M660.58 392.77L707.23 514.3" stroke="#CBCBCB" stroke-width="1.5"/>
<path d="M660.58 392.77L808.52 356.11" stroke="#CBCBCB" stroke-width="1.5"/>
<path d="M660.58 392.77L835.16 517.29" stroke="#CBCBCB" stroke-width="1.5"/>
<path d="M660.58 392.77L856.71 252.87" stroke="#CBCBCB" stroke-width="1.5"/>
<path d="M707.23 514.3L835.16 517.29" stroke="#CBCBCB" stroke-width="1.5"/>
<path d="M707.23 514.3L683.18 679.64" stroke="#CBCBCB" stroke-width="1.5"/>
<path d="M707.23 514.3L808.52 356.11" stroke="#CBCBCB" stroke-width="1.5"/>
<path d="M856.71 252.87L808.52 356.11" stroke="#CBCBCB" stroke-width="1.5"/>
<path d="M856.71 252.87L1010.15 345.33" stroke="#CBCBCB" stroke-width="1.5"/>
<path d="M856.71 252.87L977.09 83.74" stroke="#CBCBCB" stroke-width="1.5"/>
<path d="M808.52 356.11L835.16 517.29" stroke="#CBCBCB" stroke-width="1.5"/>
<path d="M835.16 517.29L953.45 550" stroke="#CBCBCB" stroke-width="1.5"/>
<path d="M835.16 517.29L847.78 658.4" stroke="#CBCBCB" stroke-width="1.5"/>
<path d="M835.16 517.29L992.37 663.41" stroke="#CBCBCB" stroke-width="1.5"/>
<path d="M977.09 83.74L1089.03 107.38" stroke="#CBCBCB" stroke-width="1.5"/>
<path d="M977.09 83.74L991.53 -86.42" stroke="#CBCBCB" stroke-width="1.5"/>
<path d="M977.09 83.74L1160.75 -97.03" stroke="#CBCBCB" stroke-width="1.5"/>
<path d="M977.09 83.74L1010.15 345.33" stroke="#CBCBCB" stroke-width="1.5"/>
<path d="M977.09 83.74L1238.91 -75.34" stroke="#CBCBCB" stroke-width="1.5"/>
<path d="M1010.15 345.33L1158.84 380.65" stroke="#CBCBCB" stroke-width="1.5"/>
<path d="M1010.15 345.33L1128.95 502.11" stroke="#CBCBCB" stroke-width="1.5"/>
<path d="M953.45 550L992.37 663.41" stroke="#CBCBCB" stroke-width="1.5"/>
<path d="M953.45 550L847.78 658.4" stroke="#CBCBCB" stroke-width="1.5"/>
<path d="M953.45 550L1128.95 502.11" stroke="#CBCBCB" stroke-width="1.5"/>
<path d="M953.45 550L1129.32 665.57" stroke="#CBCBCB" stroke-width="1.5"/>
<path d="M1160.75 -97.03L1297.16 61.02" stroke="#CBCBCB" stroke-width="1.5"/>
<path d="M1160.75 -97.03L1089.03 107.38" stroke="#CBCBCB" stroke-width="1.5"/>
<path d="M1089.03 107.38L1297.16 61.02" stroke="#CBCBCB" stroke-width="1.5"/>
<path d="M1158.84 380.65L1256.46 353.98" stroke="#CBCBCB" stroke-width="1.5"/>
<path d="M1158.84 380.65L1128.95 502.11" stroke="#CBCBCB" stroke-width="1.5"/>
<path d="M1128.95 502.11L1129.32 665.57" stroke="#CBCBCB" stroke-width="1.5"/>
<path d="M1128.95 502.11L1309.09 498.56" stroke="#CBCBCB" stroke-width="1.5"/>
<path d="M1128.95 502.11L1256.46 353.98" stroke="#CBCBCB" stroke-width="1.5"/>
<path d="M1238.91 -75.34L1297.16 61.02" stroke="#CBCBCB" stroke-width="1.5"/>
<path d="M1238.91 -75.34L1089.03 107.38" stroke="#CBCBCB" stroke-width="1.5"/>
<path d="M1297.16 61.02L1410.72 109.95" stroke="#CBCBCB" stroke-width="1.5"/>
<path d="M1256.46 353.98L1402.76 383.08" stroke="#CBCBCB" stroke-width="1.5"/>
<path d="M1309.09 498.56L1402.24 547.65" stroke="#CBCBCB" stroke-width="1.5"/>
<path d="M1309.09 498.56L1402.76 383.08" stroke="#CBCBCB" stroke-width="1.5"/>
<path d="M1309.09 498.56L1256.46 353.98" stroke="#CBCBCB" stroke-width="1.5"/>
<path d="M1309.09 498.56L1285.11 681.84" stroke="#CBCBCB" stroke-width="1.5"/>
<path d="M1309.09 498.56L1158.84 380.65" stroke="#CBCBCB" stroke-width="1.5"/>
<path d="M1437.1 -39.71L1410.72 109.95" stroke="#CBCBCB" stroke-width="1.5"/>
<path d="M1410.72 109.95L1543.56 245.86" stroke="#CBCBCB" stroke-width="1.5"/>
<path d="M1402.76 383.08L1548.05 390.31" stroke="#CBCBCB" stroke-width="1.5"/>
<path d="M1402.76 383.08L1402.24 547.65" stroke="#CBCBCB" stroke-width="1.5"/>
<path d="M1402.76 383.08L1543.56 245.86" stroke="#CBCBCB" stroke-width="1.5"/>
<path d="M1402.76 383.08L1158.84 380.65" stroke="#CBCBCB" stroke-width="1.5"/>
<path d="M1402.24 547.65L1457.56 707.04" stroke="#CBCBCB" stroke-width="1.5"/>
<path d="M1573.52 -65.25L1410.72 109.95" stroke="#CBCBCB" stroke-width="1.5"/>
<path d="M1573.52 -65.25L1297.16 61.02" stroke="#CBCBCB" stroke-width="1.5"/>
<path d="M1595.94 57.69L1437.1 -39.71" stroke="#CBCBCB" stroke-width="1.5"/>
<path d="M1595.94 57.6899L1410.72 109.95" stroke="#CBCBCB" stroke-width="1.5"/>
<path d="M1548.05 390.31L1402.24 547.65" stroke="#CBCBCB" stroke-width="1.5"/>
<path d="M1548.05 390.31L1309.09 498.56" stroke="#CBCBCB" stroke-width="1.5"/>
<path d="M1605.98 695.18L1402.24 547.65" stroke="#CBCBCB" stroke-width="1.5"/>
<path d="M49.4199 358.75C52.1813 358.75 54.4199 356.511 54.4199 353.75C54.4199 350.989 52.1813 348.75 49.4199 348.75C46.6585 348.75 44.4199 350.989 44.4199 353.75C44.4199 356.511 46.6585 358.75 49.4199 358.75Z" fill="#CBCBCB"/>
<path d="M61.87 558.42C64.6314 558.42 66.87 556.181 66.87 553.42C66.87 550.658 64.6314 548.42 61.87 548.42C59.1086 548.42 56.87 550.658 56.87 553.42C56.87 556.181 59.1086 558.42 61.87 558.42Z" fill="#CBCBCB"/>
<path d="M257.6 416.7C260.361 416.7 262.6 414.461 262.6 411.7C262.6 408.939 260.361 406.7 257.6 406.7C254.839 406.7 252.6 408.939 252.6 411.7C252.6 414.461 254.839 416.7 257.6 416.7Z" fill="#CBCBCB"/>
<path d="M348.73 386.99C351.491 386.99 353.73 384.751 353.73 381.99C353.73 379.229 351.491 376.99 348.73 376.99C345.969 376.99 343.73 379.229 343.73 381.99C343.73 384.751 345.969 386.99 348.73 386.99Z" fill="#CBCBCB"/>
<path d="M378.82 520.14C381.581 520.14 383.82 517.901 383.82 515.14C383.82 512.379 381.581 510.14 378.82 510.14C376.059 510.14 373.82 512.379 373.82 515.14C373.82 517.901 376.059 520.14 378.82 520.14Z" fill="#CBCBCB"/>
<path d="M532.37 501.37C535.131 501.37 537.37 499.131 537.37 496.37C537.37 493.609 535.131 491.37 532.37 491.37C529.609 491.37 527.37 493.609 527.37 496.37C527.37 499.131 529.609 501.37 532.37 501.37Z" fill="#CBCBCB"/>
<path d="M660.58 397.77C663.342 397.77 665.58 395.531 665.58 392.77C665.58 390.009 663.342 387.77 660.58 387.77C657.819 387.77 655.58 390.009 655.58 392.77C655.58 395.531 657.819 397.77 660.58 397.77Z" fill="#CBCBCB"/>
<path d="M707.23 519.3C709.991 519.3 712.23 517.061 712.23 514.3C712.23 511.539 709.991 509.3 707.23 509.3C704.469 509.3 702.23 511.539 702.23 514.3C702.23 517.061 704.469 519.3 707.23 519.3Z" fill="#CBCBCB"/>
<path d="M856.71 257.87C859.471 257.87 861.71 255.631 861.71 252.87C861.71 250.109 859.471 247.87 856.71 247.87C853.949 247.87 851.71 250.109 851.71 252.87C851.71 255.631 853.949 257.87 856.71 257.87Z" fill="#CBCBCB"/>
<path d="M808.52 361.11C811.281 361.11 813.52 358.871 813.52 356.11C813.52 353.349 811.281 351.11 808.52 351.11C805.759 351.11 803.52 353.349 803.52 356.11C803.52 358.871 805.759 361.11 808.52 361.11Z" fill="#CBCBCB"/>
<path d="M835.16 522.29C837.921 522.29 840.16 520.051 840.16 517.29C840.16 514.528 837.921 512.29 835.16 512.29C832.398 512.29 830.16 514.528 830.16 517.29C830.16 520.051 832.398 522.29 835.16 522.29Z" fill="#CBCBCB"/>
<path d="M977.09 88.74C979.851 88.74 982.09 86.5014 982.09 83.74C982.09 80.9786 979.851 78.74 977.09 78.74C974.329 78.74 972.09 80.9786 972.09 83.74C972.09 86.5014 974.329 88.74 977.09 88.74Z" fill="#CBCBCB"/>
<path d="M1010.15 350.33C1012.91 350.33 1015.15 348.091 1015.15 345.33C1015.15 342.569 1012.91 340.33 1010.15 340.33C1007.39 340.33 1005.15 342.569 1005.15 345.33C1005.15 348.091 1007.39 350.33 1010.15 350.33Z" fill="#CBCBCB"/>
<path d="M953.45 555C956.211 555 958.45 552.761 958.45 550C958.45 547.239 956.211 545 953.45 545C950.689 545 948.45 547.239 948.45 550C948.45 552.761 950.689 555 953.45 555Z" fill="#CBCBCB"/>
<path d="M1089.03 112.38C1091.79 112.38 1094.03 110.141 1094.03 107.38C1094.03 104.619 1091.79 102.38 1089.03 102.38C1086.27 102.38 1084.03 104.619 1084.03 107.38C1084.03 110.141 1086.27 112.38 1089.03 112.38Z" fill="#CBCBCB"/>
<path d="M1158.84 385.65C1161.6 385.65 1163.84 383.411 1163.84 380.65C1163.84 377.888 1161.6 375.65 1158.84 375.65C1156.08 375.65 1153.84 377.888 1153.84 380.65C1153.84 383.411 1156.08 385.65 1158.84 385.65Z" fill="#CBCBCB"/>
<path d="M1128.95 507.11C1131.71 507.11 1133.95 504.871 1133.95 502.11C1133.95 499.349 1131.71 497.11 1128.95 497.11C1126.19 497.11 1123.95 499.349 1123.95 502.11C1123.95 504.871 1126.19 507.11 1128.95 507.11Z" fill="#CBCBCB"/>
<path d="M1297.16 66.02C1299.92 66.02 1302.16 63.7814 1302.16 61.02C1302.16 58.2585 1299.92 56.02 1297.16 56.02C1294.4 56.02 1292.16 58.2585 1292.16 61.02C1292.16 63.7814 1294.4 66.02 1297.16 66.02Z" fill="#CBCBCB"/>
<path d="M1256.46 358.98C1259.22 358.98 1261.46 356.741 1261.46 353.98C1261.46 351.219 1259.22 348.98 1256.46 348.98C1253.7 348.98 1251.46 351.219 1251.46 353.98C1251.46 356.741 1253.7 358.98 1256.46 358.98Z" fill="#CBCBCB"/>
<path d="M1309.09 503.56C1311.85 503.56 1314.09 501.321 1314.09 498.56C1314.09 495.799 1311.85 493.56 1309.09 493.56C1306.33 493.56 1304.09 495.799 1304.09 498.56C1304.09 501.321 1306.33 503.56 1309.09 503.56Z" fill="#CBCBCB"/>
<path d="M1410.72 114.95C1413.48 114.95 1415.72 112.711 1415.72 109.95C1415.72 107.189 1413.48 104.95 1410.72 104.95C1407.96 104.95 1405.72 107.189 1405.72 109.95C1405.72 112.711 1407.96 114.95 1410.72 114.95Z" fill="#CBCBCB"/>
<path d="M1402.76 388.08C1405.52 388.08 1407.76 385.841 1407.76 383.08C1407.76 380.319 1405.52 378.08 1402.76 378.08C1400 378.08 1397.76 380.319 1397.76 383.08C1397.76 385.841 1400 388.08 1402.76 388.08Z" fill="#CBCBCB"/>
<path d="M1402.24 552.65C1405 552.65 1407.24 550.411 1407.24 547.65C1407.24 544.889 1405 542.65 1402.24 542.65C1399.48 542.65 1397.24 544.889 1397.24 547.65C1397.24 550.411 1399.48 552.65 1402.24 552.65Z" fill="#CBCBCB"/>
<path d="M-69.01 662.09L57.7 530.32" stroke="#9E9C9C" stroke-width="1.5"/>
<path d="M357.77 660.61L411.72 550.56" stroke="#9E9C9C" stroke-width="1.5"/>
<path d="M681.35 514.02L790.26 558.21" stroke="#9E9C9C" stroke-width="1.5"/>
<path d="M681.35 514.02L667.9 685.56" stroke="#9E9C9C" stroke-width="1.5"/>
<path d="M681.35 514.02L505.86 489.03" stroke="#9E9C9C" stroke-width="1.5"/>
<path d="M681.35 514.02L849.56 406.98" stroke="#9E9C9C" stroke-width="1.5"/>
<path d="M681.35 514.02L860.01 642.42" stroke="#9E9C9C" stroke-width="1.5"/>
<path d="M1124.37 226.17L1124.11 347.42" stroke="#9E9C9C" stroke-width="1.5"/>
<path d="M1124.37 226.17L1011.86 399.14" stroke="#9E9C9C" stroke-width="1.5"/>
<path d="M1124.37 226.17L1286.37 381.49" stroke="#9E9C9C" stroke-width="1.5"/>
<path d="M1124.37 226.17L1300.52 56.36" stroke="#9E9C9C" stroke-width="1.5"/>
<path d="M1124.37 226.17L1113.99 514.94" stroke="#9E9C9C" stroke-width="1.5"/>
<path d="M1450.67 -43.48L1406.51 50.05" stroke="#9E9C9C" stroke-width="1.5"/>
<path d="M1450.67 -43.48L1300.52 56.36" stroke="#9E9C9C" stroke-width="1.5"/>
<path d="M57.7 530.32L79.5 662.78" stroke="#9E9C9C" stroke-width="1.5"/>
<path d="M57.7 530.32L217.51 491.51" stroke="#9E9C9C" stroke-width="1.5"/>
<path d="M57.7 530.32L218.37 656.34" stroke="#9E9C9C" stroke-width="1.5"/>
<path d="M57.7 530.32L357.77 660.61" stroke="#9E9C9C" stroke-width="1.5"/>
<path d="M57.7 530.32L411.72 550.56" stroke="#9E9C9C" stroke-width="1.5"/>
<path d="M79.5 662.78L217.51 491.51" stroke="#9E9C9C" stroke-width="1.5"/>
<path d="M217.51 491.51L218.37 656.34" stroke="#9E9C9C" stroke-width="1.5"/>
<path d="M217.51 491.51L411.72 550.56" stroke="#9E9C9C" stroke-width="1.5"/>
<path d="M217.51 491.51L357.77 660.61" stroke="#9E9C9C" stroke-width="1.5"/>
<path d="M411.72 550.56L505.86 489.03" stroke="#9E9C9C" stroke-width="1.5"/>
<path d="M411.72 550.56L558.9 708.39" stroke="#9E9C9C" stroke-width="1.5"/>
<path d="M558.9 708.39L505.86 489.03" stroke="#9E9C9C" stroke-width="1.5"/>
<path d="M558.9 708.39L681.35 514.02" stroke="#9E9C9C" stroke-width="1.5"/>
<path d="M849.56 406.98L790.26 558.21" stroke="#9E9C9C" stroke-width="1.5"/>
<path d="M849.56 406.98L1011.86 399.14" stroke="#9E9C9C" stroke-width="1.5"/>
<path d="M849.56 406.98L963.92 524.43" stroke="#9E9C9C" stroke-width="1.5"/>
<path d="M860.01 642.42L963.92 524.43" stroke="#9E9C9C" stroke-width="1.5"/>
<path d="M1011.86 399.14L1124.11 347.42" stroke="#9E9C9C" stroke-width="1.5"/>
<path d="M1011.86 399.14L963.92 524.43" stroke="#9E9C9C" stroke-width="1.5"/>
<path d="M1011.86 399.14L1113.99 514.94" stroke="#9E9C9C" stroke-width="1.5"/>
<path d="M1011.86 399.14L1259.75 503.38" stroke="#9E9C9C" stroke-width="1.5"/>
<path d="M963.92 524.43L1113.99 514.94" stroke="#9E9C9C" stroke-width="1.5"/>
<path d="M984.59 712.44L963.92 524.43" stroke="#9E9C9C" stroke-width="1.5"/>
<path d="M984.59 712.44L1113.99 514.94" stroke="#9E9C9C" stroke-width="1.5"/>
<path d="M1124.11 347.42L1286.37 381.49" stroke="#9E9C9C" stroke-width="1.5"/>
<path d="M1113.99 514.94L1259.75 503.38" stroke="#9E9C9C" stroke-width="1.5"/>
<path d="M1122.25 685.28L1113.99 514.94" stroke="#9E9C9C" stroke-width="1.5"/>
<path d="M1122.25 685.28L963.92 524.43" stroke="#9E9C9C" stroke-width="1.5"/>
<path d="M1122.25 685.28L1259.75 503.38" stroke="#9E9C9C" stroke-width="1.5"/>
<path d="M1300.52 56.36L1406.51 50.05" stroke="#9E9C9C" stroke-width="1.5"/>
<path d="M1300.52 56.36L1460.24 226.18" stroke="#9E9C9C" stroke-width="1.5"/>
<path d="M1300.52 56.36L1540.63 51.92" stroke="#9E9C9C" stroke-width="1.5"/>
<path d="M1300.52 56.36L1600.12 -44.34" stroke="#9E9C9C" stroke-width="1.5"/>
<path d="M1286.37 381.49L1259.75 503.38" stroke="#9E9C9C" stroke-width="1.5"/>
<path d="M1286.37 381.49L1444.13 496.91" stroke="#9E9C9C" stroke-width="1.5"/>
<path d="M1286.37 381.49L1113.99 514.94" stroke="#9E9C9C" stroke-width="1.5"/>
<path d="M1259.75 503.38L1280.27 683.93" stroke="#9E9C9C" stroke-width="1.5"/>
<path d="M1280.27 683.93L1113.99 514.94" stroke="#9E9C9C" stroke-width="1.5"/>
<path d="M1406.51 50.05L1540.63 51.92" stroke="#9E9C9C" stroke-width="1.5"/>
<path d="M1406.51 50.05L1460.24 226.18" stroke="#9E9C9C" stroke-width="1.5"/>
<path d="M1406.51 50.05L1600.12 -44.34" stroke="#9E9C9C" stroke-width="1.5"/>
<path d="M1460.24 226.18L1286.37 381.49" stroke="#9E9C9C" stroke-width="1.5"/>
<path d="M1600.09 226.31L1406.51 50.05" stroke="#9E9C9C" stroke-width="1.5"/>
<path d="M681.35 539.02C695.157 539.02 706.35 527.827 706.35 514.02C706.35 500.213 695.157 489.02 681.35 489.02C667.543 489.02 656.35 500.213 656.35 514.02C656.35 527.827 667.543 539.02 681.35 539.02Z" fill="url(#paint0_radial_246_7)"/>
<path d="M1124.37 251.17C1138.18 251.17 1149.37 239.977 1149.37 226.17C1149.37 212.363 1138.18 201.17 1124.37 201.17C1110.56 201.17 1099.37 212.363 1099.37 226.17C1099.37 239.977 1110.56 251.17 1124.37 251.17Z" fill="url(#paint1_radial_246_7)"/>
<path d="M57.7 535.32C60.4614 535.32 62.7 533.081 62.7 530.32C62.7 527.559 60.4614 525.32 57.7 525.32C54.9385 525.32 52.7 527.559 52.7 530.32C52.7 533.081 54.9385 535.32 57.7 535.32Z" fill="#C8C8C8"/>
<path d="M217.51 496.51C220.271 496.51 222.51 494.271 222.51 491.51C222.51 488.749 220.271 486.51 217.51 486.51C214.749 486.51 212.51 488.749 212.51 491.51C212.51 494.271 214.749 496.51 217.51 496.51Z" fill="#C8C8C8"/>
<path d="M411.72 555.56C414.481 555.56 416.72 553.321 416.72 550.56C416.72 547.799 414.481 545.56 411.72 545.56C408.959 545.56 406.72 547.799 406.72 550.56C406.72 553.321 408.959 555.56 411.72 555.56Z" fill="#C8C8C8"/>
<path d="M505.86 494.03C508.621 494.03 510.86 491.791 510.86 489.03C510.86 486.269 508.621 484.03 505.86 484.03C503.099 484.03 500.86 486.269 500.86 489.03C500.86 491.791 503.099 494.03 505.86 494.03Z" fill="#C8C8C8"/>
<path d="M849.56 411.98C852.321 411.98 854.56 409.741 854.56 406.98C854.56 404.219 852.321 401.98 849.56 401.98C846.799 401.98 844.56 404.219 844.56 406.98C844.56 409.741 846.799 411.98 849.56 411.98Z" fill="#C8C8C8"/>
<path d="M790.26 563.21C793.021 563.21 795.26 560.971 795.26 558.21C795.26 555.449 793.021 553.21 790.26 553.21C787.499 553.21 785.26 555.449 785.26 558.21C785.26 560.971 787.499 563.21 790.26 563.21Z" fill="#C8C8C8"/>
<path d="M1011.86 404.14C1014.62 404.14 1016.86 401.901 1016.86 399.14C1016.86 396.379 1014.62 394.14 1011.86 394.14C1009.1 394.14 1006.86 396.379 1006.86 399.14C1006.86 401.901 1009.1 404.14 1011.86 404.14Z" fill="#C8C8C8"/>
<path d="M963.92 529.43C966.681 529.43 968.92 527.191 968.92 524.43C968.92 521.669 966.681 519.43 963.92 519.43C961.158 519.43 958.92 521.669 958.92 524.43C958.92 527.191 961.158 529.43 963.92 529.43Z" fill="#C8C8C8"/>
<path d="M1124.11 352.42C1126.87 352.42 1129.11 350.181 1129.11 347.42C1129.11 344.658 1126.87 342.42 1124.11 342.42C1121.35 342.42 1119.11 344.658 1119.11 347.42C1119.11 350.181 1121.35 352.42 1124.11 352.42Z" fill="#C8C8C8"/>
<path d="M1113.99 519.94C1116.75 519.94 1118.99 517.701 1118.99 514.94C1118.99 512.179 1116.75 509.94 1113.99 509.94C1111.23 509.94 1108.99 512.179 1108.99 514.94C1108.99 517.701 1111.23 519.94 1113.99 519.94Z" fill="#C8C8C8"/>
<path d="M1300.52 61.36C1303.28 61.36 1305.52 59.1214 1305.52 56.36C1305.52 53.5986 1303.28 51.36 1300.52 51.36C1297.76 51.36 1295.52 53.5986 1295.52 56.36C1295.52 59.1214 1297.76 61.36 1300.52 61.36Z" fill="#C8C8C8"/>
<path d="M1286.37 386.49C1289.13 386.49 1291.37 384.251 1291.37 381.49C1291.37 378.729 1289.13 376.49 1286.37 376.49C1283.61 376.49 1281.37 378.729 1281.37 381.49C1281.37 384.251 1283.61 386.49 1286.37 386.49Z" fill="#C8C8C8"/>
<path d="M1259.75 508.38C1262.51 508.38 1264.75 506.141 1264.75 503.38C1264.75 500.619 1262.51 498.38 1259.75 498.38C1256.99 498.38 1254.75 500.619 1254.75 503.38C1254.75 506.141 1256.99 508.38 1259.75 508.38Z" fill="#C8C8C8"/>
<path d="M1406.51 55.05C1409.27 55.05 1411.51 52.8114 1411.51 50.05C1411.51 47.2886 1409.27 45.05 1406.51 45.05C1403.75 45.05 1401.51 47.2886 1401.51 50.05C1401.51 52.8114 1403.75 55.05 1406.51 55.05Z" fill="#C8C8C8"/>
<path d="M1444.13 501.91C1446.89 501.91 1449.13 499.671 1449.13 496.91C1449.13 494.148 1446.89 491.91 1444.13 491.91C1441.37 491.91 1439.13 494.148 1439.13 496.91C1439.13 499.671 1441.37 501.91 1444.13 501.91Z" fill="#C8C8C8"/>
</g>
<defs>
<radialGradient id="paint0_radial_246_7" cx="0" cy="0" r="1" gradientUnits="userSpaceOnUse" gradientTransform="translate(681.35 514.02) scale(25 25)">
<stop offset="0.1" stop-color="white"/>
<stop offset="0.2" stop-color="#6B6B6B"/>
<stop offset="1" stop-color="#6B6B6B" stop-opacity="0"/>
</radialGradient>
<radialGradient id="paint1_radial_246_7" cx="0" cy="0" r="1" gradientUnits="userSpaceOnUse" gradientTransform="translate(1124.37 226.17) scale(25)">
<stop offset="0.1" stop-color="white"/>
<stop offset="0.2" stop-color="#6B6B6B"/>
<stop offset="1" stop-color="#6B6B6B" stop-opacity="0"/>
</radialGradient>
<clipPath id="clip0_246_7">
<rect width="1440" height="560" fill="white"/>
</clipPath>
</defs>
</svg>
