<svg width="214" height="36" viewBox="0 0 214 36" fill="none" xmlns="http://www.w3.org/2000/svg">
<path d="M1.61599 2.49079H18.0116V6.26144H11.6823V27H7.77696V6.26144H1.61599V2.49079ZM22.2202 27V0.740132H25.9235V15.8901L25.8561 15.3177C26.3499 14.3975 27.0793 13.6456 28.0445 13.0621C29.0096 12.4561 30.1654 12.1531 31.5121 12.1531C32.8588 12.1531 33.9698 12.5459 34.8451 13.3314C35.7204 14.117 36.1693 15.1494 36.1917 16.4287V27H32.4211V17.7754C32.3987 17.0572 32.1967 16.4848 31.8151 16.0584C31.4335 15.6095 30.8276 15.3738 29.9971 15.3514C29.234 15.3514 28.5495 15.5871 27.9435 16.0584C27.3375 16.5297 26.8549 17.1694 26.4958 17.9774C26.1591 18.7629 25.9908 19.6607 25.9908 20.6707V27H22.2202ZM48.1883 27.3703C46.505 27.3703 45.0686 27.0449 43.879 26.394C42.6895 25.7431 41.7805 24.8453 41.152 23.7007C40.5236 22.5336 40.2094 21.2206 40.2094 19.7617C40.2094 18.3253 40.5685 17.0347 41.2867 15.8901C42.0049 14.7454 42.97 13.8364 44.182 13.1631C45.4165 12.4673 46.7743 12.1194 48.2557 12.1194C50.2083 12.1194 51.8131 12.6917 53.07 13.8364C54.3493 14.9586 55.2022 16.5522 55.6286 18.617L44.1483 22.4887L43.273 20.3677L52.2283 17.1694L51.454 17.607C51.2071 16.9337 50.8031 16.3502 50.242 15.8564C49.7033 15.3626 48.9402 15.1157 47.9527 15.1157C47.1671 15.1157 46.4713 15.3065 45.8653 15.6881C45.2593 16.0472 44.7768 16.5634 44.4177 17.2367C44.081 17.8876 43.9127 18.6619 43.9127 19.5597C43.9127 20.4799 44.1035 21.2879 44.485 21.9837C44.8666 22.6795 45.3828 23.2181 46.0337 23.5997C46.6846 23.9588 47.4252 24.1383 48.2557 24.1383C48.8392 24.1383 49.4003 24.0373 49.939 23.8353C50.4777 23.6334 50.9826 23.364 51.454 23.0274L53.171 25.8217C52.4303 26.293 51.6111 26.6746 50.7133 26.9663C49.838 27.2357 48.9963 27.3703 48.1883 27.3703ZM67.0484 2.49079C68.9113 2.49079 70.5048 2.80501 71.829 3.43345C73.1533 4.06189 74.1633 4.95967 74.859 6.12677C75.5773 7.29388 75.9364 8.70787 75.9364 10.3688C75.9364 11.3339 75.7793 12.299 75.465 13.2641C75.1733 14.2292 74.7019 15.1045 74.051 15.8901C73.4226 16.6756 72.5697 17.3153 71.4924 17.809C70.4375 18.2804 69.1357 18.516 67.5871 18.516H64.0521V27H60.1131V2.49079H67.0484ZM67.5871 14.7117C68.44 14.7117 69.1582 14.5658 69.7417 14.2741C70.3253 13.9823 70.7742 13.612 71.0884 13.1631C71.425 12.7142 71.6607 12.2541 71.7954 11.7827C71.9525 11.289 72.031 10.8513 72.031 10.4697C72.031 10.0658 71.9637 9.62809 71.829 9.15676C71.6944 8.66298 71.4699 8.20287 71.1557 7.77643C70.8415 7.32754 70.4038 6.96843 69.8427 6.6991C69.2816 6.40732 68.5634 6.26144 67.6881 6.26144H64.0521V14.7117H67.5871ZM78.7417 19.728C78.7417 18.2916 79.0784 17.0011 79.7517 15.8564C80.425 14.6893 81.3677 13.7803 82.5797 13.1294C83.8141 12.4561 85.2057 12.1194 86.7543 12.1194C88.3479 12.1194 89.7282 12.4561 90.8953 13.1294C92.0849 13.7803 93.0051 14.6893 93.656 15.8564C94.3069 17.0011 94.6323 18.2916 94.6323 19.728C94.6323 21.1645 94.3069 22.4662 93.656 23.6334C93.0051 24.778 92.0849 25.687 90.8953 26.3603C89.7282 27.0337 88.3367 27.3703 86.7207 27.3703C85.1945 27.3703 83.8254 27.0673 82.6134 26.4613C81.4014 25.8329 80.4475 24.9463 79.7517 23.8017C79.0784 22.657 78.7417 21.2991 78.7417 19.728ZM82.546 19.7617C82.546 20.5921 82.7256 21.3553 83.0847 22.051C83.4438 22.7244 83.9376 23.263 84.566 23.667C85.1945 24.071 85.8902 24.273 86.6533 24.273C87.4838 24.273 88.202 24.071 88.808 23.667C89.4364 23.263 89.919 22.7244 90.2557 22.051C90.6148 21.3553 90.7943 20.5921 90.7943 19.7617C90.7943 18.9088 90.6148 18.1457 90.2557 17.4724C89.919 16.7766 89.4364 16.2267 88.808 15.8227C88.202 15.4187 87.4838 15.2167 86.6533 15.2167C85.8678 15.2167 85.1608 15.4299 84.5324 15.8564C83.9264 16.2604 83.4438 16.7991 83.0847 17.4724C82.7256 18.1457 82.546 18.9088 82.546 19.7617ZM101.995 12.7591L102.331 15.6544L102.197 15.4187C102.735 14.3863 103.465 13.5783 104.385 12.9947C105.328 12.4112 106.416 12.1194 107.651 12.1194C108.436 12.1194 109.132 12.2429 109.738 12.4897C110.344 12.7366 110.849 13.0845 111.253 13.5334C111.679 13.9823 111.96 14.5434 112.095 15.2167L111.893 15.2841C112.476 14.319 113.228 13.5558 114.148 12.9947C115.069 12.4112 116.045 12.1194 117.077 12.1194C118.469 12.1194 119.58 12.5234 120.41 13.3314C121.241 14.117 121.667 15.1382 121.69 16.3951V27H117.953V17.8764C117.93 17.1806 117.784 16.6083 117.515 16.1594C117.246 15.6881 116.741 15.4299 116 15.3851C115.192 15.3851 114.496 15.6432 113.913 16.1594C113.329 16.6532 112.869 17.304 112.532 18.112C112.218 18.8976 112.061 19.7393 112.061 20.637V27H108.257V17.8764C108.234 17.1806 108.077 16.6083 107.785 16.1594C107.494 15.6881 106.977 15.4299 106.237 15.3851C105.451 15.3851 104.767 15.6432 104.183 16.1594C103.6 16.6532 103.151 17.304 102.836 18.112C102.522 18.8976 102.365 19.728 102.365 20.6034V27H98.5944V12.7591H101.995ZM125.691 19.728C125.691 18.2916 126.027 17.0011 126.701 15.8564C127.374 14.6893 128.317 13.7803 129.529 13.1294C130.763 12.4561 132.155 12.1194 133.703 12.1194C135.297 12.1194 136.677 12.4561 137.844 13.1294C139.034 13.7803 139.954 14.6893 140.605 15.8564C141.256 17.0011 141.581 18.2916 141.581 19.728C141.581 21.1645 141.256 22.4662 140.605 23.6334C139.954 24.778 139.034 25.687 137.844 26.3603C136.677 27.0337 135.286 27.3703 133.67 27.3703C132.143 27.3703 130.774 27.0673 129.562 26.4613C128.35 25.8329 127.396 24.9463 126.701 23.8017C126.027 22.657 125.691 21.2991 125.691 19.728ZM129.495 19.7617C129.495 20.5921 129.675 21.3553 130.034 22.051C130.393 22.7244 130.887 23.263 131.515 23.667C132.143 24.071 132.839 24.273 133.602 24.273C134.433 24.273 135.151 24.071 135.757 23.667C136.385 23.263 136.868 22.7244 137.205 22.051C137.564 21.3553 137.743 20.5921 137.743 19.7617C137.743 18.9088 137.564 18.1457 137.205 17.4724C136.868 16.7766 136.385 16.2267 135.757 15.8227C135.151 15.4187 134.433 15.2167 133.602 15.2167C132.817 15.2167 132.11 15.4299 131.481 15.8564C130.875 16.2604 130.393 16.7991 130.034 17.4724C129.675 18.1457 129.495 18.9088 129.495 19.7617ZM151.368 27.3703C150.021 27.3703 148.82 27.0561 147.765 26.4277C146.711 25.7992 145.88 24.9015 145.274 23.7343C144.668 22.5672 144.365 21.2094 144.365 19.6607C144.365 18.0672 144.691 16.7093 145.341 15.5871C145.992 14.4648 146.879 13.612 148.001 13.0284C149.146 12.4224 150.425 12.1194 151.839 12.1194C152.871 12.1194 153.859 12.3214 154.802 12.7254C155.744 13.107 156.496 13.6681 157.057 14.4087L156.99 15.6881V0.740132H160.727V27H156.956V23.8017L157.327 24.7107C156.608 25.4738 155.744 26.1134 154.734 26.6297C153.747 27.1234 152.625 27.3703 151.368 27.3703ZM152.58 24.172C153.32 24.172 153.971 24.0486 154.532 23.8017C155.116 23.5548 155.61 23.2069 156.014 22.758C156.44 22.2867 156.754 21.7368 156.956 21.1084V18.0784C156.777 17.4948 156.474 16.9786 156.047 16.5297C155.643 16.0808 155.138 15.7329 154.532 15.4861C153.926 15.2392 153.275 15.1157 152.58 15.1157C151.772 15.1157 151.031 15.3065 150.358 15.6881C149.707 16.0696 149.179 16.5971 148.775 17.2704C148.371 17.9437 148.169 18.718 148.169 19.5934C148.169 20.4463 148.371 21.2206 148.775 21.9164C149.179 22.6121 149.718 23.162 150.391 23.566C151.065 23.97 151.794 24.172 152.58 24.172ZM164.749 19.728C164.749 18.2916 165.086 17.0011 165.759 15.8564C166.432 14.6893 167.375 13.7803 168.587 13.1294C169.822 12.4561 171.213 12.1194 172.762 12.1194C174.355 12.1194 175.736 12.4561 176.903 13.1294C178.092 13.7803 179.012 14.6893 179.663 15.8564C180.314 17.0011 180.64 18.2916 180.64 19.728C180.64 21.1645 180.314 22.4662 179.663 23.6334C179.012 24.778 178.092 25.687 176.903 26.3603C175.736 27.0337 174.344 27.3703 172.728 27.3703C171.202 27.3703 169.833 27.0673 168.621 26.4613C167.409 25.8329 166.455 24.9463 165.759 23.8017C165.086 22.657 164.749 21.2991 164.749 19.728ZM168.553 19.7617C168.553 20.5921 168.733 21.3553 169.092 22.051C169.451 22.7244 169.945 23.263 170.573 23.667C171.202 24.071 171.898 24.273 172.661 24.273C173.491 24.273 174.209 24.071 174.815 23.667C175.444 23.263 175.926 22.7244 176.263 22.051C176.622 21.3553 176.802 20.5921 176.802 19.7617C176.802 18.9088 176.622 18.1457 176.263 17.4724C175.926 16.7766 175.444 16.2267 174.815 15.8227C174.209 15.4187 173.491 15.2167 172.661 15.2167C171.875 15.2167 171.168 15.4299 170.54 15.8564C169.934 16.2604 169.451 16.7991 169.092 17.4724C168.733 18.1457 168.553 18.9088 168.553 19.7617ZM188.002 12.7591L188.339 16.7991L188.204 16.2267C188.608 15.3738 189.158 14.6444 189.854 14.0384C190.572 13.41 191.301 12.9386 192.042 12.6244C192.783 12.2877 193.389 12.1194 193.86 12.1194L193.692 15.8901C192.614 15.8003 191.672 16.0023 190.864 16.4961C190.078 16.9674 189.461 17.5958 189.012 18.3814C188.586 19.1669 188.372 19.9974 188.372 20.8727V27H184.602V12.7591H188.002ZM195.917 19.728C195.917 18.2916 196.254 17.0011 196.927 15.8564C197.6 14.6893 198.543 13.7803 199.755 13.1294C200.989 12.4561 202.381 12.1194 203.93 12.1194C205.523 12.1194 206.903 12.4561 208.071 13.1294C209.26 13.7803 210.18 14.6893 210.831 15.8564C211.482 17.0011 211.808 18.2916 211.808 19.728C211.808 21.1645 211.482 22.4662 210.831 23.6334C210.18 24.778 209.26 25.687 208.071 26.3603C206.903 27.0337 205.512 27.3703 203.896 27.3703C202.37 27.3703 201.001 27.0673 199.789 26.4613C198.577 25.8329 197.623 24.9463 196.927 23.8017C196.254 22.657 195.917 21.2991 195.917 19.728ZM199.721 19.7617C199.721 20.5921 199.901 21.3553 200.26 22.051C200.619 22.7244 201.113 23.263 201.741 23.667C202.37 24.071 203.065 24.273 203.829 24.273C204.659 24.273 205.377 24.071 205.983 23.667C206.612 23.263 207.094 22.7244 207.431 22.051C207.79 21.3553 207.97 20.5921 207.97 19.7617C207.97 18.9088 207.79 18.1457 207.431 17.4724C207.094 16.7766 206.612 16.2267 205.983 15.8227C205.377 15.4187 204.659 15.2167 203.829 15.2167C203.043 15.2167 202.336 15.4299 201.708 15.8564C201.102 16.2604 200.619 16.7991 200.26 17.4724C199.901 18.1457 199.721 18.9088 199.721 19.7617Z" fill="black"/>
<line x1="7" y1="32.5627" x2="192.416" y2="32.5627" stroke="black" stroke-width="2.87467"/>
</svg>
